<svg width="781" height="630" viewBox="0 0 781 630" fill="none" xmlns="http://www.w3.org/2000/svg">
<path fill-rule="evenodd" clip-rule="evenodd" d="M605.912 0.998091C603.4 1.50664 600.499 2.18507 599.464 2.50547C594.095 4.16929 590.002 5.34015 589.523 5.34929C589.227 5.3552 588.018 5.8272 586.836 6.39865C585.654 6.9701 584.361 7.44532 583.962 7.45554C583.563 7.46575 582.475 7.8141 581.544 8.23019C580.613 8.64628 577.312 10.1037 574.208 11.4691C552.535 21.0064 533.442 36.2694 521.043 53.9699C517.728 58.7022 517.426 59.2253 513.824 66.4574C509.938 74.262 508.705 77.4951 506.592 85.4233C503.408 97.3716 503.411 116.027 506.602 127.892C509.03 136.925 510.1 139.713 514.342 148.052C517.317 153.9 522.053 161.586 523.115 162.288C523.346 162.441 523.632 162.844 523.75 163.184C524.612 165.659 538.934 180.077 544.904 184.479C545.21 184.705 546.427 185.638 547.609 186.555C548.791 187.471 551.451 189.311 553.52 190.644C555.589 191.977 558.128 193.617 559.162 194.288C560.197 194.959 561.698 195.837 562.498 196.24C573.05 201.549 578.697 204.229 579.333 204.229C579.528 204.229 580.45 204.586 581.382 205.021C583.618 206.067 595.46 209.929 597.852 210.391C601.133 211.027 605.074 212.403 606.047 213.251C607.441 214.468 607.201 215.671 605.139 217.795C603.383 219.603 598.764 223.004 597.96 223.08C597.753 223.1 596.495 223.935 595.165 224.937C588.666 229.831 583.578 232.862 576.194 236.237C574.725 236.909 573.793 237.877 572.878 239.683C571.737 241.937 571.286 242.301 568.474 243.235C566.302 243.956 564.436 245.117 562.386 247.022C560.509 248.767 556.882 251.104 552.445 253.426C538.03 260.97 538.383 260.823 535.257 260.564C532.447 260.331 530.255 259.038 522.622 253.117C521.778 252.463 519.779 251.886 517.248 251.567C513.218 251.058 511.178 250.341 507.495 248.139C501.835 244.757 500.233 243.954 496.695 242.729C491.44 240.907 491.052 240.268 490.436 232.392C489.845 224.841 489.053 222.896 484.745 218.411C481.151 214.669 480.689 213.506 482.281 212.217C483.971 210.847 485.746 211.683 489.306 215.524L492.261 218.713L500.053 219.571C512.215 220.91 511.158 220.553 515.19 224.676C517.93 227.476 519.35 228.505 521.111 228.961C522.385 229.29 523.808 229.669 524.273 229.803C524.738 229.936 525.946 231.15 526.958 232.502C527.97 233.853 529.886 235.571 531.217 236.32C532.549 237.068 534.435 238.72 535.409 239.99C539.461 245.271 545.129 245.135 549.93 239.642C551.074 238.333 552.739 237.289 554.995 236.465C556.844 235.79 558.719 234.951 559.162 234.603C559.606 234.254 561.469 233.42 563.302 232.751L566.636 231.533L566.958 229.036C567.134 227.662 567.353 226.159 567.444 225.696C567.554 225.134 566.604 224.356 564.594 223.361C562.937 222.541 560.976 221.533 560.237 221.121C558.119 219.941 555.762 220.172 554.326 221.701C553.329 222.762 552.537 223.045 550.552 223.045C547.42 223.045 545.202 221.533 540.431 216.145C538.552 214.023 535.167 210.831 532.908 209.053C530.65 207.274 528.556 205.625 528.256 205.389C526.903 204.325 523.732 203.691 519.721 203.683C513.129 203.671 509.443 202.619 506.808 200.001C505.605 198.804 503.601 196.837 502.355 195.628C500.84 194.158 499.111 191.415 497.13 187.339C495.369 183.715 493.239 180.25 491.872 178.784C488.602 175.279 477.77 167.608 472.403 164.997C468.366 163.034 467.704 162.858 466.619 163.467C465.82 163.915 462.583 164.216 457.333 164.328C452.9 164.423 448.567 164.522 447.706 164.547C445.97 164.599 444.705 163.307 444.705 161.484C444.705 159.737 448.664 157.998 453.421 157.656C455.573 157.501 459.058 157.013 461.166 156.571C464.61 155.848 465.096 155.585 465.964 153.973C466.827 152.369 466.857 151.849 466.245 149.041C465.352 144.943 463.663 141.558 461.939 140.409C461.179 139.903 459.208 138.845 457.56 138.058C454.134 136.422 453.013 134.563 453.467 131.269C453.621 130.151 454.039 127.254 454.397 124.832C455.503 117.33 454.48 115.301 449.217 114.547C447.058 114.238 446.6 113.958 446.175 112.683C445.293 110.036 446.055 108.695 449.319 107.15C450.961 106.373 452.432 105.408 452.586 105.007C453.206 103.39 448.143 98.6108 444.629 97.4948C442.004 96.6615 433.639 92.5533 432.744 91.6588C431.467 90.3804 431.57 88.716 433.065 86.4888C435.133 83.4085 435.53 80.5582 435.046 72.2526C434.805 68.1132 434.369 64.1216 434.076 63.3824C432.945 60.5284 428.814 58.2254 423.933 57.7287C419.924 57.3207 416.018 55.8762 414.492 54.2376C413.571 53.249 412.807 53.2044 399.693 53.3726C392.087 53.4699 382.936 53.8667 379.358 54.2543C373.545 54.8832 372.358 54.8607 368.221 54.0387C365.675 53.5328 362.92 52.7684 362.099 52.3405C359.868 51.1755 358.289 51.3804 355.452 53.2011C353.295 54.586 352.436 54.8252 350.032 54.7112C346.987 54.5672 345.886 54.8187 342.081 56.5272C339.886 57.5131 338.943 57.5792 331.334 57.2836C317.674 56.7535 275.478 57.6814 273.556 58.5544C270.574 59.9096 269.526 61.2294 269.526 63.6319V65.844L275.303 66.7902C279.109 67.4138 286.576 67.9046 297.2 68.2293C306.066 68.5008 317.432 68.9969 322.456 69.3324C334.692 70.1501 344.149 69.8022 351.075 68.2809C356.465 67.0966 356.702 67.0896 361.743 67.9487C364.579 68.4319 367.494 69.0534 368.222 69.3303C368.949 69.6071 370.362 69.8334 371.361 69.8334C372.434 69.8334 374.897 70.7231 377.372 72.0053C380.214 73.4772 382.559 74.2814 384.648 74.5002C386.882 74.7346 388.486 75.3205 390.471 76.629C391.979 77.6219 393.7 78.4348 394.297 78.4348C394.894 78.4348 396.974 77.6752 398.918 76.7467C401.335 75.5926 404.151 74.8098 407.823 74.2717C414.175 73.3395 416.458 73.7841 418.64 76.379C420.367 78.4326 420.161 79.7346 417.525 83.4042C415.525 86.1899 415.245 87.6124 416.494 88.6488C416.937 89.0171 417.3 89.5353 417.3 89.8014C417.3 90.2713 419.935 94.5612 420.554 95.0998C420.724 95.2477 421.648 96.7545 422.607 98.4484C423.566 100.142 424.578 101.669 424.855 101.84C425.669 102.343 425.477 102.773 423.213 105.514C421.178 107.978 421.081 108.259 421.359 110.881C421.65 113.617 421.624 113.677 418.924 116.493C415.07 120.513 410.212 122.716 405.893 122.404C404.14 122.277 402.543 121.942 402.346 121.66C401.999 121.168 400.439 120.035 397.472 118.121C395.164 116.632 394.379 116.922 393.025 119.764C392.338 121.207 391.324 122.678 390.771 123.034C389.914 123.586 389.498 123.42 387.915 121.889C386.896 120.903 385.55 119.251 384.923 118.216C384.297 117.181 383.269 115.702 382.637 114.93C382.006 114.157 381.051 112.101 380.514 110.36C379.976 108.619 379.299 106.893 379.007 106.523C378.694 106.125 377.221 105.851 375.393 105.851C371.95 105.851 370.933 106.527 367.146 111.328C366.053 112.714 364.691 113.997 364.119 114.178C362.937 114.554 358.728 113.56 358.728 112.906C358.728 112.669 357.776 112.161 356.613 111.776C354.651 111.129 354.301 111.182 351.77 112.505C349.179 113.861 348.976 113.888 347.699 113.051C346.065 111.98 345.619 110.4 345.957 106.88C346.293 103.383 348.058 101.34 350.414 101.72C351.308 101.864 353.605 102.913 355.518 104.049C358.402 105.763 359.493 106.117 361.907 106.119C363.781 106.12 364.899 105.877 365.045 105.439C365.169 105.064 365.584 104.445 365.964 104.064C366.345 103.683 366.819 102.635 367.016 101.735C367.319 100.354 367.038 99.6714 365.218 97.3679C361.473 92.6286 355.996 89.724 350.802 89.724C348.141 89.724 344.219 91.0588 344.219 91.9646C344.219 92.2006 343.018 93.0027 341.55 93.7467C339.091 94.9934 338.312 95.0998 331.635 95.0998C327.65 95.0998 323.229 94.8579 321.811 94.5617C315.281 93.1995 291.411 90.4745 280.898 89.8912C275.982 89.6181 274.362 90.31 274.362 92.6839C274.362 95.6508 275.368 96.9738 278.537 98.1796C280.231 98.8237 282.462 99.5155 283.496 99.7161C284.647 99.9402 286.144 100.875 287.363 102.132C291.168 106.053 291.462 106.12 304.992 106.122C316.883 106.125 317.122 106.147 319.474 107.466C321.38 108.535 322.38 109.701 324.392 113.197C325.781 115.611 327.09 118.368 327.299 119.323C327.537 120.407 328.649 121.953 330.255 123.433C332.308 125.325 332.922 126.304 333.285 128.268C333.708 130.554 333.948 130.837 336.633 132.21C339.291 133.569 339.784 134.139 342.722 139.248C346.965 146.627 348.184 150.214 348.22 155.424C348.242 158.551 348.036 159.783 347.382 160.438C346.776 161.045 344.426 161.543 339.59 162.092C335.782 162.523 331.94 163.107 331.054 163.389C330.167 163.671 328.232 163.879 326.755 163.852C324.014 163.802 321.48 164.494 320.887 165.454C320.705 165.748 319.17 166.275 317.476 166.625C315.782 166.976 312.945 167.945 311.171 168.779C308.907 169.844 306.678 170.402 303.686 170.652C300.019 170.959 299.222 171.213 297.96 172.475C296.201 174.235 295.346 176.888 294.933 181.869C294.692 184.785 294.796 185.709 295.42 186.17C296.891 187.259 304.217 198.039 304.039 198.853C303.715 200.335 301.257 201.592 297.33 202.283C293.03 203.04 290.736 204.06 289.192 205.901C287.411 208.026 281.807 217.193 281.22 218.943C280.909 219.869 280.389 220.964 280.064 221.376C279.301 222.347 279.339 232.395 280.109 233.349C280.427 233.743 280.859 234.912 281.07 235.947C281.281 236.981 282.245 240.247 283.212 243.204C284.179 246.161 285.151 249.668 285.372 250.999C285.775 253.429 288.22 260.173 288.88 260.675C289.53 261.171 290.483 264.58 290.483 266.414C290.483 269.318 289.326 269.509 276.512 268.734C270.453 268.367 260.176 267.907 253.674 267.711C242.29 267.368 241.739 267.301 238.796 265.897C237.114 265.095 235.41 264.438 235.007 264.438C234.605 264.438 234.045 264.23 233.765 263.977C233.484 263.723 231.441 263.233 229.224 262.889C227.008 262.545 223.622 261.916 221.701 261.491C210.716 259.063 207.729 258.855 185.161 258.942C159.418 259.042 158.096 259.232 150.852 263.88C148.417 265.443 145.118 267.044 143.418 267.489C140.651 268.211 140.051 268.201 137.102 267.38C135.31 266.881 133.601 266.291 133.306 266.07C131.437 264.667 123.093 260.691 120.894 260.155C114.037 258.485 111.368 258.483 87.7608 260.127C74.4332 261.055 70.5766 262.997 61.729 273.234C59.4243 275.901 57.1486 278.488 56.6719 278.982C55.4736 280.224 54.3747 282.306 52.4295 287.017C51.5138 289.234 50.07 292.5 49.2215 294.274C45.7872 301.452 43.9 306.899 42.1434 314.702C41.1842 318.964 41.1708 335.078 42.123 339.431C43.8635 347.387 45.6303 354.528 45.9807 355.021C46.1908 355.317 47.0054 357.527 47.7905 359.932C49.006 363.655 49.3139 365.956 49.8593 375.39C50.7282 390.422 49.9689 397.765 46.2676 410.123C45.3041 413.34 43.4578 422.087 43.0333 425.445C42.7065 428.033 41.3787 432.285 39.8435 435.659C39.4399 436.546 38.5742 438.602 37.9197 440.228C37.2652 441.854 36.3883 443.992 35.9707 444.978C35.5532 445.964 35.0631 448.194 34.881 449.935C34.5559 453.048 34.5758 453.11 36.1035 453.701C37.974 454.427 42.1348 454.027 44.2095 452.924C45.0381 452.483 46.9253 451.014 48.4031 449.659C49.8808 448.305 52.0716 446.429 53.271 445.491C54.4704 444.553 56.284 442.703 57.3012 441.379C59.1196 439.013 63.7178 431.3 63.7178 430.616C63.7178 430.424 64.1676 429.424 64.7173 428.393C65.267 427.363 65.8984 425.915 66.1203 425.176C66.3422 424.437 66.8237 423.106 67.1902 422.219C69.8378 415.808 71.9662 409.109 74.7917 398.297C77.7326 387.041 77.9615 384.965 77.9035 370.073C77.8347 352.465 77.2866 347.363 74.6557 339.854L72.6245 334.055L72.6041 321.153C72.5858 309.298 72.6777 307.985 73.7401 304.966C74.3752 303.158 75.4972 300.739 76.2329 299.59C77.7369 297.239 83.1804 291.855 84.0525 291.855C84.3652 291.855 84.8145 291.55 85.0509 291.178C86.2046 289.36 100.064 282.179 102.419 282.179C105.269 282.179 105.632 282.591 105.632 285.833C105.632 288.744 105.552 288.908 102.945 291.318C100.534 293.546 100.258 294.036 100.258 296.078C100.258 297.721 99.9212 298.694 99.0491 299.57C97.4521 301.175 95.3424 304.452 93.9797 307.445C91.4261 313.05 91.1231 313.843 91.1231 314.907C91.1231 315.522 90.7673 316.937 90.3331 318.052C89.3869 320.478 88.4357 329.417 88.4379 335.86C88.4395 341.06 89.3917 349.896 90.0392 350.72C90.2714 351.016 90.6384 352.105 90.8549 353.14C91.0709 354.174 92.0328 356.715 92.992 358.784C93.9512 360.854 95.3913 364.845 96.192 367.654C96.9926 370.463 98.0985 374.334 98.6488 376.256C99.1996 378.178 99.8095 380.553 100.005 381.533C100.2 382.514 100.698 383.966 101.111 384.759C101.525 385.552 101.865 386.476 101.867 386.812C101.869 387.147 102.231 388.115 102.673 388.962C103.114 389.809 103.477 391.056 103.479 391.734C103.484 393.514 98.2135 403.226 94.92 407.508C93.8663 408.877 92.6411 410.531 92.1978 411.184C91.7545 411.836 90.9081 412.916 90.317 413.584C89.7259 414.253 87.9124 416.449 86.2868 418.466C79.3931 427.016 75.3 431.907 74.8965 432.075C74.6589 432.173 74.465 432.516 74.465 432.836C74.465 433.156 74.1033 433.801 73.6616 434.269C71.4305 436.635 65.828 444.649 62.9752 449.556C62.1412 450.99 61.0605 452.606 60.5732 453.146C60.0863 453.686 59.4393 454.448 59.1363 454.838C58.8332 455.229 56.5295 457.847 54.0174 460.656C45.6421 470.021 45.2375 470.623 45.2063 473.744C45.1913 475.268 45.5255 477.93 45.949 479.659C47.0822 484.285 46.7845 484.545 40.1568 484.732C35.0341 484.876 34.6956 484.955 34.443 486.076C34.2953 486.731 34.0857 497.064 33.9782 509.039C33.7875 530.18 32.9486 542.776 31.551 545.487C31.292 545.99 30.9271 547.247 30.7396 548.282C30.552 549.317 29.7035 551.869 28.8545 553.954C28.0049 556.039 27.1269 558.579 26.9028 559.598C26.6793 560.618 25.5949 562.476 24.4938 563.727C22.7609 565.697 22.4427 566.479 22.1289 569.544C21.9296 571.492 21.5437 573.492 21.2724 573.989C19.8984 576.501 18.6307 580.187 18.9537 580.73C19.1541 581.067 20.9054 583.228 22.8452 585.531C25.9544 589.224 31.3081 593.773 34.6483 595.562C36.3507 596.473 39.5764 595.397 43.9462 592.46C47.6207 589.99 47.6835 589.908 47.4267 587.942C47.2832 586.84 46.3063 584.179 45.2558 582.028C42.9612 577.33 41.7022 573.757 41.6995 571.936C41.6963 569.669 45.3509 559.014 46.5771 557.717C46.8426 557.436 47.0597 556.877 47.0597 556.474C47.0597 555.763 49.0828 551 50.5396 548.282C50.9356 547.543 51.4348 545.971 51.6487 544.788C51.8626 543.605 52.2457 542.233 52.501 541.738C52.9464 540.873 53.7917 536.27 55.3952 525.973C55.8095 523.311 56.4065 519.683 56.7214 517.909C57.0368 516.135 57.6596 510.958 58.1056 506.406C58.9649 497.64 58.6591 493.99 56.4613 486.778C54.5816 480.609 55.9153 477.477 62.4314 472.752C66.1192 470.078 69.8764 466.772 75.6563 461.115C79.0862 457.758 84.0294 452.932 86.642 450.389C89.2541 447.847 93.5681 443.384 96.228 440.47C98.8879 437.557 102.757 433.337 104.826 431.092C115.492 419.519 117.411 417.316 119.758 413.946C120.707 412.583 121.615 411.346 121.777 411.199C122.35 410.674 129.298 398.393 131.917 393.279C133.754 389.69 134.946 386.429 135.771 382.732C136.948 377.457 136.952 377.318 136.022 372.921C135.503 370.468 134.163 366.525 133.043 364.16C129.816 357.345 129.387 356.29 128.447 352.871C125.295 341.393 124.394 328.915 126.274 322.811C127.518 318.775 132.806 308.542 136.716 302.607C139.819 297.895 147.525 289.705 148.854 289.705C149.267 289.705 149.686 289.515 149.785 289.282C150.496 287.601 159.718 284.141 165.279 283.468C166.904 283.272 168.476 282.935 168.771 282.721C169.067 282.506 170.131 282.174 171.136 281.983C172.141 281.792 173.955 281.182 175.166 280.628C176.378 280.073 178.681 279.046 180.284 278.346L183.199 277.072L207.689 277.102C224.397 277.122 233.802 277.35 237.285 277.819C240.092 278.197 247.83 278.702 254.48 278.941C264.545 279.304 267.141 279.566 269.977 280.509C274.261 281.932 277.19 281.928 280.273 280.49C283.278 279.089 289.63 278.589 291.536 279.604C292.262 279.99 293.54 281.278 294.374 282.466C295.881 284.612 295.892 284.682 296.008 293.85L296.125 303.076L297.61 304.624C298.426 305.476 301.645 307.488 304.762 309.094C311.349 312.488 311.328 312.476 315.202 315.066C318.965 317.582 322.359 318.447 326.656 317.985C328.483 317.788 332.518 317.384 335.621 317.088C341.445 316.531 344.941 315.512 350.253 312.825C354.256 310.799 360.556 309.208 366.148 308.808C368.604 308.633 371.022 308.272 371.522 308.005C372.021 307.739 374.607 306.334 377.266 304.884C381.984 302.312 383.748 301.653 392.044 299.368C396.093 298.253 400.493 296.73 403.722 295.325C404.678 294.909 408.038 294.056 411.189 293.429L416.919 292.29L421.561 293.373C424.115 293.968 427.767 295.191 429.678 296.089C438.13 300.061 442.226 300.793 445.86 298.978C446.896 298.461 449.061 296.465 450.671 294.543C453.754 290.864 457.389 288.555 459.751 288.774C460.802 288.872 461.066 289.166 460.963 290.128C460.891 290.804 460.592 291.65 460.299 292.009C456.902 296.174 453.558 301.392 453.118 303.217C452.815 304.473 453.096 304.849 455.592 306.526C457.14 307.566 459.297 308.57 460.385 308.755C463.537 309.293 464.517 310.476 465.314 314.704C466.139 319.078 466.656 320.117 470.396 324.917C470.627 325.212 471.034 325.813 471.303 326.252C471.991 327.376 473.004 344.208 472.5 346.147C471.752 349.023 468.024 348.967 461.9 345.988C458.736 344.449 457.927 344.288 453.303 344.279C448.58 344.27 448.04 344.381 446.088 345.761C443.686 347.46 443.136 347.609 438.085 347.942C433.571 348.24 431.808 349.545 431.808 352.593C431.808 354.78 432.376 355.668 434.86 357.367C435.8 358.009 437.117 359.437 437.788 360.541C439.391 363.182 439.669 363.336 442.839 363.346C444.325 363.35 446.018 363.681 446.6 364.081C447.183 364.481 449.837 365.494 452.497 366.334C456.958 367.74 460.692 369.46 461.375 370.421C461.839 371.074 467.47 373.557 468.5 373.562C470.37 373.573 473.487 375.262 475.872 377.557C478.457 380.045 481.488 381.367 485.813 381.893C493.39 382.814 507.577 389.056 518.978 396.482C520.963 397.776 522.689 398.834 522.814 398.834C522.938 398.834 525.546 400.483 528.608 402.498C531.67 404.514 536.472 407.462 539.28 409.049C542.088 410.637 544.506 412.089 544.654 412.278C545.054 412.789 551.901 416.037 552.577 416.037C552.899 416.037 553.242 416.218 553.341 416.44C553.584 416.988 558.559 418.891 563.461 420.312C570.735 422.421 575.956 424.188 576.788 424.821C577.237 425.164 578.654 426.477 579.937 427.739C582.25 430.015 582.61 431.05 582.39 434.793C582.311 436.143 580.344 438.615 579.35 438.615C579.03 438.615 577.268 439.925 575.433 441.525C573.599 443.125 571.347 444.6 570.43 444.801C569.513 445.003 568.114 445.506 567.321 445.92C566.528 446.334 565.697 446.674 565.474 446.676C564.907 446.68 558.778 451.008 556.241 453.195C553.904 455.209 549.57 459.505 547.035 462.32C545.416 464.118 537.916 474.315 536.862 476.152C536.171 477.356 530.365 486.234 528.89 488.342C528.27 489.229 526.785 491.406 525.592 493.18C522.786 497.352 520.833 499.509 517.696 501.902C516.297 502.969 514.596 504.898 513.917 506.187C512.314 509.227 510.551 509.769 503.149 509.495C497.694 509.292 497.461 509.233 496.226 507.737C495.523 506.885 493.558 504.715 491.858 502.916C489.977 500.924 488.768 499.17 488.768 498.432C488.768 496.49 490.838 494.524 492.882 494.524C494.807 494.524 495.801 495.803 496.538 499.228C496.968 501.224 497.77 501.401 500.239 500.042C505.55 497.12 506.287 494.359 502.661 490.965C501.436 489.818 499.925 488.392 499.303 487.797C498.681 487.201 497.462 486.354 496.593 485.915C495.725 485.476 493.67 483.76 492.026 482.102C489.136 479.187 487.029 477.956 479.784 474.946C475.808 473.295 470.375 473.056 467.527 474.408C464.454 475.867 464.319 476.773 464.319 495.868C464.319 512.916 464.152 514.726 462.466 516.027C462.274 516.175 461.591 517.05 460.949 517.971C459.828 519.579 459.815 519.734 460.641 521.839C461.479 523.969 461.587 524.04 464.523 524.354C466.184 524.532 468.873 525.008 470.498 525.411C472.124 525.814 474.39 526.304 475.535 526.499C476.679 526.693 478.009 527.066 478.49 527.328C478.971 527.589 481.595 528.293 484.32 528.891C489.269 529.977 489.28 529.977 491.843 528.913C493.255 528.327 495.025 527.502 495.776 527.08C497.449 526.14 505.1 524.801 511.606 524.309C515.336 524.027 517.133 523.597 519.463 522.431C522.165 521.079 533.917 512.69 536.515 510.258C537.073 509.735 538.575 508.461 539.852 507.426C541.129 506.391 544.606 503.377 547.578 500.729C550.551 498.08 553.691 495.298 554.558 494.546C557.426 492.059 563.038 486.85 576.013 474.633C578.054 472.711 581.586 469.325 583.863 467.107C586.139 464.89 590.447 460.738 593.435 457.882C598.446 453.092 598.933 452.444 599.702 449.549C601.009 444.628 601.887 431.451 601.177 427.419C599.977 420.608 595.763 414.612 587.055 407.329C583.255 404.15 571.379 396.146 570.463 396.146C570.159 396.146 569.909 395.931 569.909 395.667C569.909 395.403 569.003 394.795 567.894 394.314C566.786 393.834 564.187 392.479 562.118 391.303C558.547 389.275 540.097 380.019 539.625 380.019C539.502 380.019 537.017 378.908 534.102 377.55C519.929 370.947 514.892 368.73 514.068 368.73C513.749 368.73 513.487 368.488 513.487 368.192C513.487 367.896 513.175 367.654 512.794 367.654C512.414 367.654 511.18 367.184 510.055 366.61C508.929 366.036 505.915 364.922 503.359 364.134C490.083 360.046 487.806 358.171 488.4 351.814C488.571 349.979 488.967 347.893 489.278 347.179C489.883 345.794 491.186 336.055 492.005 326.798C492.639 319.63 492.729 319.29 494.807 316.209C497.205 312.655 497.115 310.671 494.37 306.614C491.062 301.725 490.789 300.692 490.716 292.789C490.665 287.425 490.843 285.342 491.434 284.329C491.997 283.364 492.268 280.787 492.395 275.19C492.492 270.903 492.687 266.851 492.83 266.186C493.138 264.741 495.245 264.521 496.324 265.822C497.304 267.003 500.481 268.525 502.873 268.96C504.948 269.336 505.953 270.57 506.688 273.646C507.072 275.254 508.504 276.329 511.606 277.342C514.485 278.281 517.373 280.149 518.928 282.077C519.63 282.946 520.755 283.942 521.428 284.29C523.198 285.203 550.167 285.796 551.17 284.943C552.258 284.019 555.637 281.493 557.025 280.566C559.478 278.928 564.352 274.945 567.223 272.232C568.848 270.696 571.142 268.858 572.32 268.148C573.498 267.438 574.949 266.566 575.544 266.209C576.14 265.852 577.231 265.291 577.97 264.962C578.709 264.634 584.27 259.342 590.329 253.203C603.122 240.24 604.945 238.694 609.973 236.537C612.025 235.657 615.76 233.824 618.272 232.462C620.784 231.101 623.565 229.63 624.451 229.194C625.338 228.759 627.998 227.323 630.362 226.005C635.701 223.028 643.326 219.281 644.044 219.281C644.34 219.281 644.727 218.703 644.904 217.996C645.287 216.469 646.836 216.056 652.182 216.056C654.209 216.056 657.504 215.811 659.504 215.511C661.504 215.211 665.68 214.621 668.783 214.201C680.689 212.586 691.21 209.837 704.249 204.932C709.329 203.021 723.976 195.745 726.946 193.657C728.347 192.671 729.656 191.865 729.854 191.865C730.051 191.865 731.494 190.897 733.06 189.714C734.626 188.532 736.057 187.564 736.241 187.564C736.638 187.564 743.934 181.69 746.903 178.982C752.45 173.921 757.451 168.533 760.854 163.955C762.08 162.304 763.206 160.833 763.357 160.685C764.313 159.745 772.494 146.024 772.494 145.361C772.494 145.232 773.086 143.831 773.81 142.247C774.534 140.664 775.647 137.694 776.284 135.646C776.92 133.599 777.662 131.44 777.932 130.849C778.389 129.848 779.54 124.223 780.571 117.947C781.143 114.465 781.143 98.8452 780.57 95.3686C779.461 88.6322 778.287 82.9703 777.897 82.4731C777.662 82.1736 777.173 80.6582 776.809 79.1051C776.445 77.552 775.929 76.1468 775.664 75.9823C775.398 75.8178 775.18 75.306 775.18 74.8442C775.18 73.2976 767.478 58.1974 765.357 55.5875C765.117 55.2918 763.783 53.4613 762.393 51.5196C759.022 46.8104 759.181 46.9915 751.805 39.4697C748.259 35.8528 743.423 31.3903 741.058 29.5529C738.694 27.7154 736.397 25.9237 735.953 25.571C735.13 24.9157 725.166 18.6776 722.251 16.9917C720.485 15.9708 711.387 11.5277 708.817 10.4311C707.93 10.0526 706.28 9.3489 705.15 8.86723C702.268 7.63831 691.232 3.99888 687.054 2.89952C675.737 -0.0781503 676.241 -0.0453578 642.184 0.0159266C614.482 0.0664594 609.903 0.190103 605.912 0.998091ZM637.475 30.9044C637.306 42.9043 637.058 52.8313 636.925 52.9646C636.684 53.206 632.202 52.7232 621.496 51.3029C613.719 50.2713 601.042 47.4291 598.909 46.2384C598.456 45.9857 597.308 45.6078 596.357 45.3992C595.406 45.1901 594.628 44.7573 594.628 44.4369C594.628 43.2795 600.172 34.6594 604.032 29.8158C607.811 25.0727 615.579 18.0147 619.552 15.7128C626.19 11.8675 632.671 9.39513 636.76 9.14838C637.756 9.08817 637.775 9.68274 637.475 30.9044ZM655.054 10.7407C655.335 11.0138 655.92 11.2369 656.355 11.2369C657.841 11.2369 664.212 14.635 668.515 17.7228C670.879 19.42 674.627 22.7353 676.844 25.0909C682.049 30.6221 681.757 30.2544 686.549 37.3097C688.296 39.8831 691.352 45.4847 691.352 46.1147C691.352 46.9964 677.615 50.1821 669.052 51.2863C665.801 51.7051 661.194 52.3002 658.814 52.6082C656.435 52.9162 653.071 53.1684 651.339 53.1684H648.191L648.546 38.5665C648.742 30.535 648.901 20.65 648.901 16.5987V9.23332L651.722 9.73865C653.274 10.0171 654.773 10.4676 655.054 10.7407ZM600.207 17.2992C596.502 21.1402 594.192 24.0335 590.883 28.9771C587.564 33.9336 587.002 34.8481 585.504 37.7155C584.771 39.1186 583.925 40.247 583.623 40.2228C583.321 40.1992 582.107 39.6068 580.925 38.9068C579.743 38.2064 578.227 37.3838 577.557 37.078C576.004 36.37 570.013 32.272 567.491 30.1921L565.558 28.5976L566.793 27.7987C569.11 26.3 580.377 21.0284 584.956 19.3006C587.468 18.3523 590.369 17.2546 591.404 16.8611C595.395 15.3424 602.739 13.4168 603.196 13.7694C603.327 13.8711 601.982 15.4596 600.207 17.2992ZM692.883 16.5918C696.327 17.747 700.111 19.0958 701.294 19.5888C708.639 22.6525 718.409 27.5364 721.421 29.6513C722.717 30.5608 722.722 30.5926 721.69 31.3898C718.576 33.7949 713.01 37.1651 708.027 39.6616C702.808 42.2759 702.351 42.4119 701.713 41.5394C701.334 41.0217 701.025 40.282 701.025 39.8949C701.025 39.5078 700.783 39.1912 700.488 39.1912C700.192 39.1912 699.95 38.9143 699.95 38.5762C699.95 37.7983 694.563 28.7702 693.954 28.5293C693.706 28.4304 693.502 28.1138 693.502 27.8246C693.502 27.1397 685.455 17.2401 683.627 15.6757C680.409 12.9222 682.586 13.1378 692.883 16.5918ZM561.593 39.9616C561.895 40.2771 562.526 40.7771 562.994 41.0727C563.463 41.3684 565.712 42.8511 567.992 44.3676C570.272 45.8841 573.554 47.8194 575.285 48.6683C577.017 49.5171 578.56 50.5073 578.716 50.8686C578.997 51.5212 578.346 54.0667 577.372 56.1251C576.3 58.3899 572.612 73.003 571.273 80.2932C570.786 82.9413 570.244 87.478 570.067 90.3745C569.865 93.6989 569.488 95.8551 569.046 96.2228C568.549 96.6352 560.651 96.69 541.981 96.411L515.617 96.0175L515.936 94.0806C516.111 93.0151 516.463 91.5383 516.717 90.7992C516.972 90.06 517.444 88.1413 517.767 86.535C518.089 84.9293 518.555 83.3569 518.802 83.0408C519.048 82.7252 519.412 81.7409 519.611 80.8539C519.809 79.9669 520.314 78.5154 520.732 77.6284C521.149 76.7414 522.255 74.3222 523.189 72.2526C528.365 60.7902 540.345 46.5615 552.683 37.2242L555.637 34.9884L558.34 37.1882C559.826 38.3983 561.29 39.646 561.593 39.9616ZM743.584 46.9044C751.606 54.9338 756.913 62.2207 761.653 71.715C764.72 77.8585 765.788 80.4905 766.572 83.8294C766.951 85.4454 767.441 87.0092 767.662 87.3049C767.882 87.6005 768.348 89.5358 768.697 91.6055C769.046 93.6752 769.47 95.9325 769.639 96.6223L769.945 97.8759L743.321 97.6974C728.678 97.599 716.534 97.3555 716.335 97.1566C716.136 96.9572 715.392 92.3608 714.682 86.9425C713.194 75.585 710.575 63.0217 709.042 59.8881C708.753 59.2968 708.185 57.5523 707.78 56.0116C706.91 52.6974 706.638 53.0141 712.956 49.9746C715.528 48.7371 718.501 47.1351 719.563 46.4147C720.624 45.6943 721.663 45.0949 721.871 45.0831C722.08 45.0713 724.548 43.3037 727.355 41.1561L732.46 37.2505L735.646 39.6992C737.399 41.0459 740.971 44.2886 743.584 46.9044ZM593.13 56.332C604.63 60.4327 616.844 62.8174 633.721 64.2565L637.079 64.5431V80.9834V97.4238L620.065 97.0685C610.707 96.8728 598.012 96.7126 591.854 96.7126H580.657V94.0838C580.657 92.6382 581 89.5541 581.42 87.2296C581.839 84.9056 582.342 81.7947 582.536 80.3163C583.118 75.907 586.561 62.5922 587.627 60.6311C587.887 60.1532 588.369 58.7619 588.698 57.54C589.027 56.3186 589.519 55.3187 589.792 55.3187C590.065 55.3187 591.567 55.7746 593.13 56.332ZM698.297 62.618C699.206 65.4435 699.95 68.2083 699.95 68.7626C699.95 69.3168 700.162 69.9006 700.42 70.0608C700.679 70.2205 701.195 72.3515 701.567 74.7964C701.939 77.2408 702.427 79.604 702.653 80.0475C702.878 80.491 703.332 83.6359 703.662 87.0361C703.991 90.4363 704.382 94.1273 704.531 95.2391L704.8 97.2598L676.448 97.1206L648.095 96.9814L647.918 92.6807C647.82 90.3153 647.907 83.03 648.11 76.4914L648.479 64.6027L656.079 64.2232C668.232 63.6163 680.05 61.6149 692.427 58.0668C694.348 57.5163 696.083 57.1594 696.282 57.2739C696.481 57.3878 697.388 59.793 698.297 62.618ZM271.824 70.7651C271.062 71.2962 269.965 78.209 270.385 79.8196C270.872 81.6796 272.803 82.3914 279.199 83.0693C282.597 83.4294 288.28 84.2272 291.826 84.8422C300.327 86.3168 305.408 86.9442 313.858 87.5618C317.7 87.8425 323.866 88.5843 327.561 89.2095C331.255 89.8353 335.35 90.3153 336.66 90.2761C338.937 90.2084 342.069 88.8875 342.069 87.9951C342.069 87.7634 343.488 87.5737 345.221 87.5737C347.475 87.5737 348.738 87.2893 349.654 86.5743C352.427 84.4132 354.53 83.6783 356.982 84.0143C360.227 84.4594 362.636 85.6948 363.679 87.4479C364.564 88.937 367.024 90.4535 369.475 91.0201C370.273 91.205 371.353 92.2055 372.135 93.4844C373.235 95.281 373.74 95.6374 375.19 95.6374C377.694 95.6374 379.153 94.9418 381.407 92.6721C384.874 89.1821 385.498 82.6344 382.604 80.1163C381.224 78.9159 374.637 76.5951 370.983 76.021C369.721 75.8232 368.885 75.3539 368.689 74.7346C367.987 72.5219 365.294 72.3074 355.772 73.7051C348.633 74.7534 323.807 74.6131 315.202 73.4766C311.507 72.9885 303.648 72.466 297.737 72.3149C291.826 72.1644 286.163 71.7913 285.151 71.486C282.663 70.7344 272.644 70.1925 271.824 70.7651ZM543.242 108.002H569.149L569.789 118.081C570.682 132.15 573.303 145.792 577.19 156.593C577.603 157.742 577.824 158.873 577.681 159.104C577.538 159.336 575.791 160.313 573.799 161.276C571.808 162.238 570.057 163.176 569.909 163.359C569.762 163.543 568.432 164.387 566.954 165.234C563.199 167.386 557.11 172.078 553.446 175.64C552.503 176.556 549.682 174.363 542.193 166.893C537.519 162.232 530.145 153.731 530.145 153.003C530.145 152.872 529.026 151.099 527.657 149.063C525.208 145.421 519.938 134.903 519.932 133.644C519.93 133.29 519.578 132.327 519.15 131.506C518.722 130.685 518.084 128.507 517.732 126.668C517.382 124.828 516.908 123.081 516.68 122.785C516.089 122.02 514.885 109.335 515.3 108.253C515.51 107.705 515.976 107.48 516.491 107.677C516.956 107.856 528.994 108.002 543.242 108.002ZM631.353 108.352L637.079 108.703V116.598C637.079 120.941 636.921 129.216 636.728 134.988L636.376 145.482L630.951 145.835C627.967 146.029 624.196 146.429 622.571 146.724C620.945 147.018 617.439 147.6 614.779 148.017C607.401 149.174 595.571 151.975 594.026 152.93C593.713 153.123 592.288 153.59 590.86 153.967C588.282 154.647 588.256 154.641 587.733 153.234C586.563 150.091 584.413 142.615 584.416 141.7C584.417 141.163 584.194 140.305 583.92 139.792C583.645 139.279 583.05 136.453 582.597 133.511C582.143 130.568 581.539 126.71 581.256 124.936C580.972 123.162 580.576 118.626 580.376 114.856L580.011 108.002H602.819C615.364 108.002 628.204 108.159 631.353 108.352ZM704.671 109.211C705.278 109.946 703.582 130.585 702.674 133.531C702.399 134.421 702.021 136.238 701.834 137.569C701.078 142.934 697.593 153.47 696.627 153.311C696.238 153.247 693.744 152.558 691.084 151.779C684.897 149.968 680.47 148.969 674.426 148.021C671.766 147.603 668.26 147.006 666.634 146.693C665.008 146.38 660.112 145.977 655.752 145.797L647.826 145.469V127.363C647.826 117.404 647.988 109.095 648.185 108.898C648.382 108.701 661.047 108.539 676.33 108.539C697.906 108.539 704.242 108.689 704.671 109.211ZM759.505 109.434L770.43 109.788L770.057 113.061C769.261 120.066 766.777 130.667 765.241 133.613C764.8 134.458 764.439 135.407 764.436 135.722C764.434 136.243 759.862 145.491 758.342 148.052C753.933 155.478 745.009 165.844 737.63 172.11L734.74 174.565L730.759 171.399C723.683 165.774 722.073 164.758 713.375 160.416L707.99 157.728L708.317 155.847C708.497 154.812 708.842 153.723 709.085 153.428C709.328 153.132 709.701 151.922 709.914 150.74C710.127 149.557 710.526 148.155 710.8 147.624C712.222 144.872 716.017 119.639 716.052 112.706L716.071 109.077L732.326 109.079C741.267 109.079 753.497 109.239 759.505 109.434ZM395.504 128.396C396.64 129.56 398.261 130.8 399.106 131.15C399.951 131.5 400.642 131.979 400.642 132.214C400.642 132.956 410.395 134.857 414.882 134.99C419.096 135.114 422.582 134.355 429.336 131.842C431.949 130.87 437.516 130.322 440.014 130.79C442.179 131.197 443.45 133.383 442.869 135.7C442.482 137.243 442.276 137.346 438.6 137.839C436.627 138.104 435.548 138.63 434.19 139.988C432.744 141.435 431.806 141.86 429.385 142.162C427.731 142.369 425.167 142.378 423.687 142.181C421.539 141.896 420.085 142.121 416.477 143.296C412.216 144.684 411.795 144.727 409.121 144.047C401.503 142.109 392.352 133.891 392.03 128.699C391.975 127.812 391.956 126.904 391.987 126.683C392.123 125.72 393.589 126.434 395.504 128.396ZM371.827 133.134C373.013 134.985 373.45 135.77 375.49 139.719C375.872 140.458 376.367 141.305 376.592 141.601C376.816 141.896 378.055 143.608 379.346 145.403C380.636 147.199 382.584 149.195 383.674 149.838C385.836 151.114 387.378 153.972 388.009 157.87C388.328 159.844 389.211 161.042 394.376 166.509C398.058 170.407 400.96 174.02 401.894 175.869C403.566 179.181 404.03 179.5 407.16 179.5C410.402 179.5 412.126 180.681 413.757 184.017C414.552 185.641 415.664 187.117 416.229 187.296C416.793 187.476 418.842 189.061 420.781 190.819C424.434 194.13 425.885 194.632 428.217 193.39C429.894 192.495 430.522 191.597 432.882 186.71C434.037 184.319 435.31 182.089 435.712 181.755C436.114 181.422 437.999 181.175 439.902 181.206C441.805 181.237 444.122 181.094 445.052 180.888C446.114 180.654 447.414 180.801 448.545 181.284C450.866 182.275 454.371 185.679 455.633 188.166C456.598 190.068 456.597 190.158 455.546 192.197C454.955 193.345 453.607 195.115 452.549 196.131C449.886 198.69 449.565 200.84 451.384 203.943C452.165 205.277 453.414 207.583 454.159 209.068C456.044 212.821 457.52 214.247 460.594 215.281C463.872 216.384 464.432 216.828 464.845 218.647C465.024 219.44 466.128 221.534 467.297 223.302C470.951 228.825 470.09 232.6 464.532 235.437C463.459 235.985 461.824 237.071 460.898 237.85C459.408 239.104 459.215 239.588 459.223 242.042C459.231 244.791 459.351 245.092 463.53 252.88C464.363 254.433 464.8 256.541 465.103 260.468C465.448 264.943 465.748 266.212 466.801 267.64C469.412 271.179 467.696 278.856 463.71 281.468C461.892 282.66 461.559 282.056 461.086 276.708L460.713 272.489L457.056 268.461C453.651 264.711 453.437 264.33 453.957 262.953C454.441 261.669 454.213 260.907 452.231 257.177C447.004 247.343 445.522 245.961 441.504 247.165C438.681 248.011 436.364 247.924 435.547 246.94C434.706 245.926 434.703 245.929 440.943 241.125C443.456 239.19 445.995 237.232 446.586 236.773C447.177 236.315 448.138 235.602 448.722 235.19C449.774 234.446 449.773 234.416 448.57 231.511C447.67 229.339 447.483 228.251 447.845 227.292C448.113 226.582 448.49 224.792 448.682 223.313C449.026 220.673 448.986 220.574 446.423 217.7C443.843 214.807 443.776 214.772 440.328 214.552C436.891 214.334 436.803 214.363 434.291 216.537C432.89 217.751 431.258 218.744 430.665 218.744C428.583 218.744 427.568 219.806 426.681 222.915C425.417 227.347 424.754 228.511 422.714 229.886C419.622 231.972 411.488 231.092 409.187 228.425C407.521 226.492 404.73 225.199 402.222 225.197C400.875 225.196 399.303 224.836 398.729 224.397C398.156 223.958 396.719 223.33 395.537 223C394.354 222.671 393.123 222.186 392.801 221.922C392.479 221.659 390.869 220.724 389.222 219.845C387.576 218.966 384.489 217.089 382.363 215.673C376.919 212.048 376.682 211.941 371.901 210.961C369.541 210.477 367.244 209.762 366.797 209.373C365.24 208.021 362.125 207.326 360.769 208.028C357.641 209.648 356.391 211.758 356.938 214.494C357.499 217.302 366.615 225.901 372.968 229.614C375.036 230.823 378.18 232.941 379.953 234.321C383.068 236.745 388.891 240.21 394.462 242.955C397.015 244.213 397.644 244.281 407.09 244.31C419.939 244.349 422.908 245.148 421.635 248.224C421.132 249.439 419.949 250.315 416.586 251.966C414.171 253.151 411.59 254.301 410.851 254.52C410.112 254.739 408.565 255.549 407.412 256.319C404.307 258.393 404.38 258.355 401.02 259.672C398.887 260.509 397.341 261.58 396.114 263.069C395.128 264.266 393.592 266.075 392.702 267.089C390.866 269.178 391.07 270.042 393.761 271.587C395.034 272.318 396.737 272.502 402.224 272.502C410.013 272.502 414.262 271.869 416.246 270.413C416.997 269.863 418.447 269.231 419.471 269.01C421.994 268.464 424.745 266.99 426.799 265.082C430.262 261.863 433.817 261.47 435.811 264.086C437.374 266.136 437.42 266.474 436.543 269.404L435.904 271.537L431.572 271.192L427.241 270.846L425.337 272.615C423.343 274.468 422.178 275.355 418.67 277.69C416.563 279.092 416.493 279.1 409.266 278.76C401.176 278.38 393.548 278.992 390.856 280.239C387.54 281.774 383.181 283.157 380.491 283.527C378.721 283.771 376.978 284.499 375.386 285.662C374.056 286.632 372.121 287.601 371.087 287.816C370.052 288.031 367.151 288.814 364.639 289.555C362.126 290.297 358.862 291.213 357.384 291.589C351.525 293.082 344.12 295.798 342.607 297.009C340.72 298.519 332.22 300.059 325.411 300.124C318.425 300.19 315.411 299.472 313.724 297.337C312.916 296.316 312.799 261.306 313.581 254.762C314.112 250.32 313.612 247.382 311.922 245.007C310.656 243.229 310.619 240.486 311.832 238.366C312.625 236.979 312.756 235.098 312.768 224.926C312.783 213.488 312.825 213.028 314.048 210.949C314.744 209.766 315.652 208.604 316.067 208.366C316.482 208.129 317.303 206.99 317.892 205.834C318.769 204.115 318.963 202.666 318.963 197.835C318.963 194.59 319.182 191.359 319.449 190.656C320.068 189.026 322.406 188.323 329.646 187.589C335.189 187.028 335.249 187.006 338.96 184.254C342.663 181.508 342.74 181.48 347.89 181.038C354.991 180.429 359.265 181.051 359.265 182.695C359.265 184.311 362.17 186.833 364.47 187.214C367.752 187.756 373.346 187.56 375.386 186.831C376.844 186.309 377.689 186.299 379.147 186.785C381.525 187.578 393.758 188.203 396.611 187.678C398.471 187.336 398.785 187.073 398.939 185.726C399.443 181.328 397.788 178.946 392.312 176.187C390.539 175.294 388.363 173.792 387.476 172.85C386.51 171.824 384.465 170.632 382.371 169.875C377.625 168.159 374.607 166.327 371.384 163.202C367.29 159.235 366.186 158.903 362.139 160.427C360.302 161.119 358.283 161.543 357.633 161.373C356.591 161.1 356.487 160.795 356.723 158.694C356.951 156.677 357.454 155.863 360.085 153.262C363.209 150.172 367.967 144.443 369.641 141.753C370.501 140.373 370.497 140.194 369.568 138.527C367.869 135.476 367.289 133.266 367.891 132.14C368.768 130.501 370.404 130.915 371.827 133.134ZM663.678 158.046C667.225 158.342 670.852 158.8 671.739 159.064C672.626 159.328 675.285 159.835 677.65 160.191C680.014 160.547 682.19 161.019 682.486 161.241C682.782 161.462 684.437 161.934 686.164 162.288C687.891 162.643 690.138 163.281 691.155 163.706L693.006 164.48L691 168.362C686.992 176.114 682.095 182.847 676.038 188.933C672.787 192.2 668.918 195.641 667.44 196.58C665.962 197.519 664.51 198.475 664.213 198.705C663.243 199.453 657.492 202.079 656.815 202.082C656.453 202.084 655.46 202.448 654.61 202.892C653.76 203.335 651.765 203.851 650.177 204.038L647.289 204.377V181.008C647.289 168.155 647.449 157.479 647.644 157.284C648.015 156.913 652.811 157.141 663.678 158.046ZM636.542 180.544C636.542 194.3 636.339 203.754 636.039 203.939C634.243 205.049 622.209 199.927 616.228 195.507C611.096 191.715 604.017 184.038 599.838 177.735C596.009 171.96 592.593 165.713 593.062 165.346C594.111 164.524 606.837 161.032 611.935 160.166C613.795 159.851 616.283 159.35 617.466 159.053C620.205 158.366 627.617 157.623 632.646 157.531L636.542 157.459V180.544ZM435.777 163.657C438.116 165.997 432.966 169.66 425.512 170.959C420.837 171.773 418.479 171.076 416.567 168.317C415.788 167.192 415.15 165.987 415.15 165.639C415.15 163.588 433.907 161.786 435.777 163.657ZM709.441 171.006C714.939 173.808 724.352 180.14 724.538 181.16C724.754 182.345 714.423 188.11 703.443 192.932C699.163 194.811 698.725 194.981 696.457 195.637C695.275 195.978 693.546 196.6 692.615 197.018C691.683 197.436 690.687 197.778 690.401 197.778C690.114 197.778 688.366 198.262 686.516 198.853C684.666 199.445 682.798 199.928 682.366 199.928C681.933 199.928 683.178 198.201 685.131 196.091C691.555 189.149 696.803 181.496 701.392 172.377C702.55 170.075 703.546 168.749 704.115 168.749C704.609 168.749 707.006 169.764 709.441 171.006ZM584.857 174.259C586.128 176.698 587.876 179.783 588.74 181.113C589.605 182.444 590.48 183.895 590.686 184.339C590.892 184.782 592.045 186.393 593.248 187.917C594.45 189.442 595.977 191.402 596.64 192.272C597.303 193.143 599.094 195.104 600.619 196.629C602.144 198.156 603.249 199.547 603.074 199.721C602.65 200.146 589.426 196.147 585.224 194.324C584.338 193.939 582.161 193.059 580.388 192.367C578.615 191.675 576.801 190.827 576.358 190.482C575.914 190.137 574.934 189.642 574.179 189.381C573.424 189.121 570.456 187.578 567.584 185.951L562.363 182.995L564.927 180.689C567.905 178.012 567.686 178.178 571.522 175.66C574.257 173.865 581.648 169.86 582.272 169.835C582.422 169.829 583.585 171.819 584.857 174.259ZM471.643 195.37C472.715 195.564 474.469 196.445 475.539 197.328C477.059 198.582 477.484 199.32 477.484 200.711C477.484 202.62 476.657 203.131 473.552 203.146C471.589 203.156 470.154 202.393 467.676 200.024C466.175 198.588 465.745 197.814 465.995 196.996C466.542 195.205 467.392 194.467 468.578 194.75C469.191 194.897 470.57 195.176 471.643 195.37ZM339.651 210.354C337.407 211.338 334.688 214.264 333.355 217.131C328.809 226.904 328.587 228.331 330.716 234.065C333.099 240.482 334.025 242.564 334.969 243.626C335.439 244.155 336.004 245.969 336.226 247.658C336.448 249.348 336.893 252.251 337.215 254.111C337.537 255.971 337.884 259.677 337.985 262.348C338.087 265.018 338.442 267.476 338.776 267.81C339.619 268.653 339.534 269.883 338.492 271.974C338.002 272.956 337.578 274.818 337.551 276.112C337.509 278.142 337.75 278.679 339.321 280.052C342.218 282.582 344.33 282.286 350.58 278.474C357.263 274.397 359.524 272.07 362.476 266.236C363.799 263.621 365.673 260.223 366.641 258.685C368.248 256.131 368.4 255.518 368.4 251.597C368.4 246.944 367.815 244.724 366.312 243.671C365.783 243.3 364.688 241.471 363.879 239.606C361.281 233.619 360.705 232.783 355.341 227.195C347.622 219.156 347.323 218.714 346.381 213.956C345.554 209.774 343.492 208.67 339.651 210.354ZM41.9548 259.558C41.3637 259.793 39.3158 260.158 37.4044 260.37C35.493 260.582 32.9067 261.221 31.6574 261.79C30.408 262.36 29.1785 262.826 28.9254 262.826C28.6723 262.826 26.7228 263.988 24.5938 265.409C12.9713 273.164 4.07315 286.155 0.954318 299.919C-0.718479 307.301 -0.0688127 341.676 1.94467 352.333C3.26657 359.33 4.04628 362.817 4.89315 365.521C5.96787 368.955 8.02166 374.867 8.80889 376.793C10.939 382.005 12.1384 387.771 13.7306 400.447C15.9337 417.99 16.5243 421.778 17.5377 424.866C18.7683 428.616 19.8817 430.014 21.6362 430.014C22.9812 430.014 24.1521 428.943 29.5955 422.733C33.285 418.524 34.04 417.038 34.7714 412.543C35.0599 410.768 35.6156 408.349 36.0067 407.167C36.3979 405.984 37.0148 402.204 37.3781 398.767C38.1078 391.862 37.5398 383.6 36.0444 379.368C35.5962 378.1 34.9852 373.796 34.6865 369.805C34.3877 365.813 33.8842 361.58 33.5682 360.397C32.3876 355.985 30.1823 349.088 29.7734 348.529C29.5407 348.211 28.7014 344.824 27.9088 341.003C26.6852 335.107 26.4697 332.753 26.4874 325.454C26.5014 319.557 26.7722 315.754 27.3488 313.358C27.812 311.437 28.3467 309.018 28.5369 307.983C28.9571 305.703 30.6993 300.482 32.0781 297.371C32.6337 296.118 33.0884 294.848 33.0884 294.549C33.0884 294.25 33.3302 294.005 33.6257 294.005C33.9213 294.005 34.1631 293.685 34.1631 293.293C34.1631 292.901 34.8009 291.994 35.5801 291.277C36.3593 290.56 38.772 287.756 40.9413 285.046C45.4788 279.378 47.1392 278.044 50.8819 277.055C56.3753 275.606 57.8885 273.494 58.0019 267.119C58.0868 262.354 57.6591 261.572 54.1426 260.064C51.6858 259.01 44.1225 258.697 41.9548 259.558ZM244.687 364.374C242.108 364.918 239.206 365.664 238.238 366.034C235.885 366.93 229.562 369.991 229.224 370.396C229.076 370.573 228.427 370.997 227.781 371.337C227.135 371.678 224.475 373.575 221.87 375.554C212.495 382.675 205.151 389.138 192.684 401.234C189.285 404.531 183.482 409.496 179.787 412.266C172.376 417.823 166.115 422.926 162.63 426.251C161.882 426.965 156.939 430.748 147.546 437.795C143.606 440.751 138.936 443.78 137.016 444.626C136.157 445.004 135.334 445.439 135.186 445.593C135.039 445.747 132.26 447.203 129.012 448.829C125.764 450.456 122.862 451.972 122.564 452.199C122.265 452.426 121.034 453.273 119.827 454.08C111.724 459.503 107.974 462.071 107.467 462.545C106.953 463.026 101.872 465.6 90.6341 471.074C83.8408 474.383 80.2523 479.603 78.7622 488.342C78.4597 490.116 77.8143 492.898 77.328 494.524C75.5553 500.449 73.8432 505.583 73.0882 507.238C72.6632 508.17 72.3155 509.112 72.3155 509.332C72.3155 509.552 70.7669 513.628 68.8737 518.39C65.7705 526.196 63.9854 531.324 61.276 540.218C60.7806 541.845 60.0476 545.11 59.6468 547.476C58.1411 556.366 57.2657 561.012 56.507 564.141C56.0771 565.915 55.4462 570.106 55.1061 573.456C54.1893 582.469 55.1813 586.962 59.8273 594.836C61.6796 597.976 63.3981 603.376 62.8521 604.344C61.1041 607.44 58.0599 608.601 49.2618 609.528C43.4916 610.136 40.649 611.25 39.5297 613.343C38.0627 616.084 39.8327 620.704 43.3584 623.334C48.2752 627.001 54.5171 628.302 62.2551 627.271C64.9806 626.908 70.1124 626.612 73.6589 626.612C79.1926 626.613 81.0019 626.853 86.4147 628.304C96.2833 630.95 103.155 630.485 105.425 627.018C106.105 625.98 106.242 624.935 106.006 622.586C105.575 618.294 103.166 613.923 96.7573 605.804C93.0726 601.136 92.0785 599.297 90.3428 593.939C86.3632 581.653 85.7769 580.555 80.5876 575.656C75.7756 571.114 74.9642 570.196 73.8723 568.06C71.6917 563.794 72.876 559.454 80.2254 544.788C82.8977 539.454 84.0595 537.241 88.9736 528.123C89.7705 526.645 91.4648 523.5 92.7394 521.134C97.2382 512.784 100.258 506.702 100.258 505.993C100.258 505.599 100.5 505.276 100.796 505.276C101.091 505.276 101.333 504.937 101.333 504.524C101.333 503.49 106.202 494.123 108.696 490.36C113.784 482.68 119.878 478.389 133.306 473.032C137.593 471.322 142.423 468.434 146.39 465.208C156.286 457.16 160.054 455.273 162.73 457.027C163.536 457.555 164.164 458.591 164.341 459.684C164.684 461.793 163.961 469.256 163.155 471.942C162.449 474.294 162.424 479.498 163.11 481.303C163.711 482.885 166.37 485.797 168.109 486.778C169.949 487.816 179.272 492.428 187.042 496.142C198.849 501.787 211.267 508.091 217.402 511.554C218.437 512.138 220.976 513.552 223.045 514.698C225.113 515.843 226.887 516.973 226.985 517.21C227.084 517.446 227.35 517.64 227.577 517.64C227.804 517.64 230.142 518.973 232.772 520.602C235.402 522.23 237.916 523.727 238.359 523.928C238.803 524.128 242.627 526.815 246.858 529.898C253.382 534.653 266.556 542.906 267.622 542.906C267.802 542.906 269.694 544.046 271.827 545.438C277.317 549.022 282.143 554.068 286.632 560.915C288.764 564.168 290.804 567.272 291.167 567.814C292.156 569.293 294.4 571.525 296.182 572.804C298.012 574.117 306.993 578.364 308.028 578.405C308.279 578.415 309.452 578.891 310.634 579.462C311.816 580.033 313.052 580.509 313.381 580.519C314.218 580.545 320.641 583.579 321.809 584.5C322.339 584.918 322.913 586.119 323.083 587.167C323.283 588.405 324.403 590.264 326.275 592.466C327.861 594.331 329.162 596.117 329.165 596.433C329.17 596.75 328.3 598.028 327.234 599.275C325.43 601.383 325.321 601.712 325.663 603.996C326.193 607.529 329.273 610.448 334.546 612.412C344.638 616.171 346.239 616.841 348.395 618.208C349.657 619.008 351.751 619.821 353.047 620.016C354.342 620.21 357.057 621.178 359.08 622.167C361.103 623.156 363.846 624.132 365.176 624.337C367.77 624.736 371.934 626.669 374.63 628.726C376.012 629.78 376.93 629.995 380.055 629.995C384.4 629.995 384.792 629.712 386.745 625.156C387.81 622.674 388.014 621.293 388.014 616.555C388.014 610.94 387.168 607.392 384.684 602.578C384.302 601.839 383.989 600.94 383.987 600.581C383.985 600.222 383.639 598.891 383.218 597.624C382.797 596.357 382.189 594.311 381.865 593.077C381.097 590.144 377.906 585.947 374.563 583.471C373.094 582.384 371.047 580.376 370.012 579.01C366.887 574.883 366.619 574.64 364.79 574.297C361.673 573.712 359.451 574.465 358.17 576.538C356.933 578.541 356.932 578.621 357.966 592.201C358.674 601.499 355.276 604.391 348.815 599.991C343.456 596.34 342.607 594.668 342.607 587.768C342.607 584.143 342.35 582.039 341.753 580.782C340.906 578.996 337.293 575.342 334.336 573.28C332.501 572 328.314 567.819 326.626 565.581C325.293 563.812 322.56 563.123 313.404 562.25C307.999 561.734 306.791 561.013 306.318 558.019C305.646 553.754 304.267 549.567 303.181 548.494C301.327 546.661 286.965 535.922 280.273 531.364C276.874 529.049 271.872 525.492 269.155 523.459C266.439 521.427 262.208 518.775 259.752 517.567C257.296 516.359 254.899 514.974 254.426 514.489C251.018 510.995 245.784 507.094 240.24 503.912C238.762 503.064 237.432 502.238 237.285 502.076C237.039 501.807 225.802 496.208 216.596 491.768C214.527 490.771 212.714 489.817 212.566 489.649C211.584 488.531 202.937 485.281 199.05 484.569C194.393 483.716 192.571 478.492 193.642 469.058C193.958 466.273 194.469 463.545 194.778 462.997C195.087 462.448 195.853 460.205 196.48 458.011C197.495 454.461 197.579 453.246 197.244 446.99C196.846 439.541 197.352 435.955 199.05 434.206C199.538 433.703 200.204 432.977 200.53 432.593C202.209 430.612 208.692 425.713 209.635 425.713C209.776 425.713 211.094 424.867 212.566 423.832C214.038 422.797 215.375 421.95 215.539 421.95C215.925 421.95 221.285 417.989 222.374 416.899C223.697 415.576 231.187 409.637 236.199 405.937C245.346 399.184 253.125 396.504 257.848 398.478C258.959 398.943 260.007 399.684 260.176 400.123C260.345 400.564 259.597 402.987 258.514 405.509L256.546 410.094L258.468 413.211C260.69 416.812 260.883 418.798 259.182 420.566C258.517 421.258 254.95 424.061 251.256 426.795C247.562 429.53 243.572 432.513 242.389 433.424C239.878 435.36 236.257 439.191 234.494 441.777C233.53 443.191 232.371 443.912 229.277 445.023L225.3 446.452L224.298 451.269C223.17 456.691 223.226 461.345 224.543 471.659L225.364 478.092L229.925 482.411C235.259 487.462 234.493 486.864 241.325 491.298C247.29 495.17 247.192 495.109 252.868 498.418C256.621 500.606 263.018 503.663 263.842 503.663C264.5 503.663 270.273 507.538 272.159 509.245C273.178 510.166 276.085 512.888 278.62 515.293C281.155 517.698 284.075 520.355 285.109 521.198C286.144 522.041 287.116 522.901 287.271 523.109C288.187 524.349 293.808 527.392 296.976 528.363C298.146 528.722 300.061 530.171 301.852 532.053C303.475 533.758 305.979 536.111 307.417 537.283C308.855 538.454 310.87 540.174 311.895 541.106C314.8 543.747 320.32 545.15 328.062 545.215C333.274 545.259 334.67 545.099 335.852 544.325C339.951 541.638 337.767 538.398 325.551 529.045C324.888 528.538 323.874 527.76 323.297 527.316C320.503 525.17 318.807 523.869 313.589 519.869C291.952 503.278 287.763 499.795 278.401 490.607C274.85 487.122 270.264 482.214 268.211 479.702C266.158 477.189 262.565 473.63 260.227 471.792L255.975 468.451L256.231 465.214C256.676 459.569 259.843 454.413 263.749 452.973C264.266 452.782 264.69 452.21 264.69 451.702C264.69 450.338 266.927 447.312 268.175 446.989C272.066 445.98 281.155 437.981 283.653 433.366C286.148 428.757 287.321 421.127 287.142 410.661C287.02 403.522 287.151 401.476 287.815 400.178L288.64 398.565L293.676 398.698C296.446 398.771 299.581 399.084 300.643 399.393C301.705 399.702 304.266 400.28 306.335 400.676C313.198 401.991 322.948 404.663 326.299 406.147C327.23 406.56 328.226 406.898 328.511 406.898C328.796 406.898 330.681 408.214 332.698 409.822C334.716 411.431 336.984 412.899 337.74 413.084C340.102 413.664 341.37 414.815 343.191 418.031C344.161 419.743 345.102 421.265 345.284 421.413C346.285 422.227 347.944 425.195 348.45 427.073C349.056 429.324 352.245 434.989 353.797 436.571C355 437.798 355.478 438.414 357.669 441.572C358.694 443.05 359.655 444.381 359.802 444.529C360.833 445.56 369.276 459.8 374.247 468.891C376.518 473.044 381.781 481.16 382.704 481.932C383.626 482.703 387.271 489.635 389.043 493.986C389.825 495.908 390.861 498.19 391.344 499.058C391.913 500.081 392.344 502.632 392.57 506.315C392.971 512.858 393.563 514.313 397.208 517.715C399.963 520.285 408.925 529.257 410.022 530.542C410.401 530.985 412.797 534.251 415.347 537.799C417.896 541.347 420.225 544.543 420.522 544.9C420.818 545.257 421.061 545.667 421.061 545.812C421.061 545.957 422.461 548.326 424.171 551.077C425.882 553.827 427.581 556.682 427.947 557.421C428.313 558.16 429.811 561.063 431.276 563.872C432.741 566.681 433.943 569.243 433.949 569.565C433.953 569.887 434.598 572.185 435.38 574.672C436.702 578.874 437.075 579.463 440.674 583.006C444.439 586.713 444.557 586.91 444.916 590.081C445.16 592.241 445.725 593.95 446.589 595.138C447.306 596.125 448.289 597.472 448.771 598.131C449.795 599.528 450.584 602.593 450.606 605.266C450.664 612.153 453.839 614.656 464.236 616.01C470.555 616.833 471.947 618.233 472.056 623.88C472.086 625.395 472.261 627.391 472.446 628.315L472.782 629.995H502.581H532.38L532.025 628.377C531.589 626.391 530.58 624.112 528.399 620.184C527.232 618.083 522.27 612.099 519.167 609.051C517.003 606.923 516.096 605.591 515.874 604.212C515.3 600.644 514.688 599.88 511.096 598.25C509.195 597.388 507.444 596.353 507.205 595.95C506.67 595.05 501.506 591.407 499.889 590.79C499.24 590.542 496.962 588.771 494.828 586.855C490.689 583.14 489.114 582.53 485.276 583.157L483.126 583.508L483.001 586.995C482.933 588.913 482.609 592.754 482.282 595.53C481.626 601.089 481.627 601.093 485.544 603.777C486.283 604.284 488.097 605.565 489.574 606.625C491.052 607.685 493.182 609.154 494.306 609.891C496.342 611.225 498.441 614.904 498.441 617.137C498.441 617.98 498.052 618.168 496.311 618.168C494.568 618.168 493.667 617.73 491.341 615.752C489.778 614.423 486.202 611.786 483.395 609.892C480.587 607.998 477.578 605.788 476.709 604.981C475.352 603.721 474.513 603.465 470.798 603.174C464.803 602.704 464.269 602.253 460.543 594.514C459.759 592.888 458.754 590.832 458.308 589.945C457.862 589.058 457.142 586.639 456.707 584.569C454.962 576.26 454.489 574.244 453.679 571.667C451.772 565.601 450.608 561.157 449.523 555.808C448.394 550.242 446.686 546.148 442.612 539.238C441.684 537.664 440.558 535.608 440.109 534.669C439.661 533.73 438.349 531.268 437.194 529.198C436.039 527.128 433.399 522.048 431.327 517.909C429.255 513.769 426.882 509.657 426.053 508.77C425.224 507.883 422.864 505.101 420.81 502.588C417.279 498.269 412.254 492.714 410.18 490.836C409.663 490.367 409.239 489.773 409.239 489.515C409.239 489.257 408.751 488.359 408.154 487.521C407.082 486.015 406.593 483.07 404.941 468.182C404.247 461.918 403.139 458.849 400.624 456.217C399.367 454.902 398.356 453.072 397.727 450.972C397.187 449.166 395.871 446.623 394.74 445.196C392.334 442.162 391.083 439.461 389.076 432.971C387.288 427.188 386.701 425.958 384.702 423.798C382.318 421.224 380.304 420.074 375.481 418.535C373.022 417.751 370.56 416.867 370.01 416.573C366.929 414.923 369.189 410.403 373.774 409.049C376.166 408.342 377.019 407.646 378.536 405.159C381.482 400.333 384.128 399.916 391.377 403.135C394.04 404.318 396.596 405.285 397.055 405.285C397.515 405.285 398.024 405.5 398.186 405.762C398.348 406.024 399.269 406.392 400.233 406.578C401.197 406.765 403.073 407.638 404.403 408.518C407.016 410.245 411.628 413.435 413.118 414.543C413.863 415.098 414.153 416.734 414.62 423.025C414.939 427.313 415.422 432.151 415.693 433.777C419.011 453.629 422.563 466.696 427.039 475.518C429.029 479.439 429.663 481.279 429.677 483.167C429.689 484.939 430.153 486.427 431.289 488.342C432.166 489.82 433.26 491.841 433.72 492.834C435.269 496.172 436.923 497.481 439.595 497.481C441.582 497.481 442.295 497.183 443.721 495.757C445.372 494.105 445.466 493.776 445.973 487.906C446.431 482.594 446.336 480.467 445.256 471.89C444.45 465.49 443.931 458.017 443.785 450.711C443.564 439.672 444.219 418.495 444.798 417.914C445.467 417.245 455.389 415.973 457.87 416.238C468.513 417.374 475.513 418.576 483.395 420.623C492.555 423.001 504.035 425.78 510.8 427.256C519.14 429.075 534.383 430.255 549.784 430.274C555.98 430.281 557.58 430.12 558.718 429.373C559.977 428.547 560.067 428.258 559.695 426.224C559.033 422.602 558.933 422.547 544.188 417.563C542.602 417.027 541.056 416.742 540.752 416.93C539.575 417.658 537.19 417.12 534.463 415.511C532.898 414.587 530.394 413.6 528.898 413.316C526.192 412.803 524.405 411.925 522.353 410.101C521.762 409.576 519.828 408.905 518.054 408.611C511.94 407.597 505.693 406.251 505.158 405.83C504.862 405.599 503.774 405.235 502.74 405.022C501.705 404.809 498.441 403.918 495.485 403.043C489.671 401.322 482.569 399.556 478.29 398.769C476.812 398.497 471.492 398.34 466.468 398.42C458.938 398.54 457.002 398.412 455.452 397.69C449.533 394.935 445.773 394.24 442.386 395.273C440.131 395.961 439.561 395.963 437.953 395.29C436.938 394.866 436.107 394.29 436.107 394.01C436.107 393.731 435.48 392.92 434.713 392.208C433.647 391.219 432.478 390.837 429.743 390.581C427.775 390.397 424.724 389.871 422.962 389.411C421.199 388.951 416.605 388.43 412.752 388.255C404.643 387.884 400.305 386.546 397.322 383.493C395.741 381.876 393.707 380.722 390.827 379.809C389.715 379.457 388.947 377.646 388.2 373.622C386.736 365.736 383.162 363.779 375.386 366.606C370.358 368.433 368.584 369.613 366.662 372.407C364.233 375.939 364.231 379.371 366.654 382.653C367.614 383.954 368.4 385.575 368.4 386.256C368.4 387.792 367.382 390.102 366.581 390.385C365.419 390.796 357.335 389.812 354.804 388.953C353.395 388.474 351.827 388.081 351.32 388.079C350.813 388.077 349.778 387.752 349.019 387.356C348.261 386.96 346.931 386.466 346.064 386.259C344.466 385.877 339.909 384.235 336.965 382.98C336.078 382.603 333.297 381.534 330.785 380.604C328.273 379.675 325.798 378.68 325.285 378.392C324.771 378.104 324.046 377.86 323.672 377.85C323.299 377.84 322.026 377.365 320.844 376.793C319.662 376.222 318.393 375.747 318.025 375.736C317.657 375.726 315.964 375.253 314.263 374.685C312.563 374.116 308.753 373.167 305.798 372.574C302.842 371.982 299.094 371.224 297.469 370.89C295.843 370.555 292.7 369.922 290.483 369.483C288.266 369.043 285.969 368.469 285.378 368.206C284.787 367.943 282.248 367.331 279.736 366.845C261.701 363.361 252.554 362.716 244.687 364.374Z" fill="#173452"/>
</svg>
