<svg width="1760" height="164" viewBox="0 0 1760 164" fill="none" xmlns="http://www.w3.org/2000/svg">
<path d="M128.881 158.88H130.081C131.201 158.88 132.241 158.4 133.201 157.44C134.161 156.48 134.961 155.36 135.601 154.08C136.401 152.8 136.961 151.44 137.281 150C137.601 148.4 137.761 146.96 137.761 145.68V19.4403L75.8409 163.92L17.0409 26.8803V145.68C17.0409 146.96 17.2009 148.4 17.5209 150C17.8409 151.44 18.3209 152.8 18.9609 154.08C19.7609 155.36 20.6409 156.48 21.6009 157.44C22.5609 158.4 23.6809 158.88 24.9609 158.88H26.1609V161.28H0.000938416V158.88H1.20094C2.32094 158.88 3.36094 158.4 4.32094 157.44C5.28094 156.48 6.08094 155.36 6.72094 154.08C7.36094 152.8 7.84094 151.44 8.16094 150C8.48094 148.4 8.64094 146.96 8.64094 145.68V17.7603C8.64094 16.6403 8.48094 15.3603 8.16094 13.9203C7.84094 12.4803 7.36094 11.1203 6.72094 9.84026C6.08094 8.56026 5.28094 7.52026 4.32094 6.72026C3.36094 5.76026 2.32094 5.28026 1.20094 5.28026H0.000938416V2.88027H24.4809L80.1609 134.16L135.841 2.88027H162.961V5.28026H161.761C160.481 5.28026 159.361 5.76026 158.401 6.72026C157.441 7.52026 156.561 8.56026 155.761 9.84026C155.121 11.1203 154.641 12.4803 154.321 13.9203C154.001 15.3603 153.841 16.6403 153.841 17.7603V145.68C153.841 146.96 154.001 148.4 154.321 150C154.641 151.44 155.121 152.8 155.761 154.08C156.561 155.36 157.441 156.48 158.401 157.44C159.361 158.4 160.481 158.88 161.761 158.88H162.961V161.28H128.881V158.88ZM278.003 158.88H279.203C283.043 158.88 284.963 157.12 284.963 153.6C284.963 152.32 284.723 150.96 284.243 149.52L262.643 91.2003H220.643L199.763 148.56C199.283 149.84 199.043 151.04 199.043 152.16C199.043 154.24 199.603 155.92 200.723 157.2C201.843 158.32 203.043 158.88 204.323 158.88H205.523V161.28H178.883V158.88H180.083C182.163 158.88 184.163 157.68 186.083 155.28C188.163 152.72 189.843 149.76 191.123 146.4L246.083 0.000261307L299.843 144.96C300.963 148.16 302.483 151.28 304.403 154.32C306.483 157.36 309.123 158.88 312.323 158.88H313.523V161.28H278.003V158.88ZM223.043 83.0403H260.003L241.523 32.8803L223.043 83.0403ZM327.886 158.88H329.086C330.366 158.88 331.486 158.4 332.446 157.44C333.406 156.48 334.206 155.36 334.846 154.08C335.646 152.8 336.206 151.44 336.526 150C336.846 148.4 337.006 146.96 337.006 145.68V17.7603C337.006 16.6403 336.846 15.3603 336.526 13.9203C336.206 12.4803 335.646 11.1203 334.846 9.84026C334.206 8.56026 333.406 7.52026 332.446 6.72026C331.486 5.76026 330.446 5.28026 329.326 5.28026H328.126V2.88027H362.206V5.28026H361.006C359.726 5.28026 358.606 5.76026 357.646 6.72026C356.686 7.52026 355.806 8.56026 355.006 9.84026C354.366 11.1203 353.806 12.4803 353.326 13.9203C353.006 15.3603 352.846 16.6403 352.846 17.7603V67.4403L408.526 12.0003C409.806 10.7203 410.446 9.20026 410.446 7.44027C410.446 6.00027 409.806 5.28026 408.526 5.28026V2.88027H434.446V5.28026C431.246 5.44026 428.366 6.40026 425.806 8.16027C423.406 9.92027 420.766 12.2403 417.886 15.1203L361.006 72.0003C371.406 72.3203 379.806 74.5603 386.206 78.7203C392.606 82.8803 397.646 88.6403 401.326 96.0003L420.286 134.4C421.406 136.8 422.846 139.44 424.606 142.32C426.526 145.04 428.606 147.68 430.846 150.24C433.246 152.64 435.886 154.72 438.766 156.48C441.646 158.08 444.686 158.88 447.886 158.88V161.28H435.886C431.246 161.28 427.246 160.64 423.886 159.36C420.526 157.92 417.566 156.08 415.006 153.84C412.606 151.44 410.446 148.8 408.526 145.92C406.766 143.04 405.166 140.16 403.726 137.28L384.286 98.6403C381.246 92.7203 377.006 88.2403 371.566 85.2003C366.286 82.0003 360.046 80.2403 352.846 79.9203V145.68C352.846 146.96 353.006 148.32 353.326 149.76C353.646 151.2 354.126 152.64 354.766 154.08C355.406 155.36 356.206 156.48 357.166 157.44C358.126 158.24 359.166 158.72 360.286 158.88H361.966V161.28H327.886V158.88ZM528.616 9.12027C516.776 9.12027 506.456 11.2803 497.656 15.6003C489.016 19.7603 481.816 25.2803 476.056 32.1603C470.296 38.8803 465.976 46.4803 463.096 54.9603C460.376 63.4403 459.016 71.8403 459.016 80.1603C459.016 89.6003 460.856 98.8803 464.536 108C468.216 116.96 473.256 124.96 479.656 132C486.216 138.88 493.816 144.48 502.456 148.8C511.096 152.96 520.456 155.04 530.536 155.04C533.416 155.04 536.776 154.72 540.616 154.08C544.616 153.44 548.536 152.24 552.376 150.48C556.216 148.56 559.736 145.92 562.936 142.56C566.296 139.2 568.856 134.8 570.616 129.36H573.016V156C570.616 156 568.056 156.32 565.336 156.96C562.776 157.6 559.896 158.32 556.696 159.12C552.536 160.24 547.896 161.28 542.776 162.24C537.816 163.2 532.536 163.68 526.936 163.68C513.016 163.68 500.776 161.28 490.216 156.48C479.656 151.68 470.856 145.44 463.816 137.76C456.776 130.08 451.496 121.44 447.976 111.84C444.456 102.08 442.696 92.2403 442.696 82.3203C442.696 72.4003 444.456 62.5603 447.976 52.8003C451.496 43.0403 456.856 34.3203 464.056 26.6403C471.256 18.8003 480.296 12.4803 491.176 7.68026C502.056 2.88027 514.856 0.480269 529.576 0.480269C534.856 0.480269 539.576 0.960268 543.736 1.92027C548.056 2.88026 551.896 3.84026 555.256 4.80027C557.656 5.60027 559.816 6.24027 561.736 6.72026C563.816 7.04027 565.816 7.20027 567.736 7.20027V33.8403H565.336C564.376 28.8803 562.616 24.8003 560.056 21.6003C557.496 18.2403 554.456 15.6803 550.936 13.9203C547.576 12.1603 543.896 10.9603 539.896 10.3203C536.056 9.52027 532.296 9.12027 528.616 9.12027ZM689.187 158.88H690.387C691.667 158.88 692.787 158.48 693.747 157.68C694.707 156.72 695.507 155.6 696.147 154.32C696.947 152.88 697.507 151.44 697.827 150C698.147 148.4 698.307 146.96 698.307 145.68V35.7603L618.627 143.52V145.68C618.627 146.96 618.787 148.4 619.107 150C619.587 151.44 620.147 152.8 620.787 154.08C621.427 155.36 622.227 156.48 623.187 157.44C624.147 158.4 625.267 158.88 626.547 158.88H627.747V161.28H593.667V158.88H594.867C596.147 158.88 597.267 158.48 598.227 157.68C599.187 156.72 599.987 155.6 600.627 154.32C601.427 152.88 601.987 151.44 602.307 150C602.627 148.4 602.787 146.96 602.787 145.68V17.7603C602.787 16.6403 602.627 15.3603 602.307 13.9203C601.987 12.4803 601.427 11.1203 600.627 9.84026C599.987 8.56026 599.187 7.52026 598.227 6.72026C597.267 5.76026 596.147 5.28026 594.867 5.28026H593.667V2.88027H627.747V5.28026H625.827C624.707 5.44026 623.667 6.00027 622.707 6.96027C621.907 7.92027 621.187 9.04027 620.547 10.3203C619.907 11.4403 619.427 12.7203 619.107 14.1603C618.787 15.4403 618.627 16.6403 618.627 17.7603V128.64L698.307 20.8803V17.7603C698.307 16.6403 698.147 15.3603 697.827 13.9203C697.507 12.4803 696.947 11.1203 696.147 9.84026C695.507 8.56026 694.707 7.52026 693.747 6.72026C692.787 5.76026 691.667 5.28026 690.387 5.28026H689.187V2.88027H723.267V5.28026H722.067C720.787 5.28026 719.667 5.76026 718.707 6.72026C717.747 7.52026 716.947 8.56026 716.307 9.84026C715.667 11.1203 715.107 12.4803 714.627 13.9203C714.307 15.3603 714.147 16.6403 714.147 17.7603V145.68C714.147 146.96 714.307 148.32 714.627 149.76C715.107 151.2 715.667 152.64 716.307 154.08C716.947 155.36 717.747 156.48 718.707 157.44C719.667 158.4 720.787 158.88 722.067 158.88H723.267V161.28H689.187V158.88ZM875.131 158.88H876.331C877.451 158.88 878.491 158.4 879.451 157.44C880.411 156.48 881.211 155.36 881.851 154.08C882.651 152.8 883.211 151.44 883.531 150C883.851 148.4 884.011 146.96 884.011 145.68V19.4403L822.091 163.92L763.291 26.8803V145.68C763.291 146.96 763.451 148.4 763.771 150C764.091 151.44 764.571 152.8 765.211 154.08C766.011 155.36 766.891 156.48 767.851 157.44C768.811 158.4 769.931 158.88 771.211 158.88H772.411V161.28H746.251V158.88H747.451C748.571 158.88 749.611 158.4 750.571 157.44C751.531 156.48 752.331 155.36 752.971 154.08C753.611 152.8 754.091 151.44 754.411 150C754.731 148.4 754.891 146.96 754.891 145.68V17.7603C754.891 16.6403 754.731 15.3603 754.411 13.9203C754.091 12.4803 753.611 11.1203 752.971 9.84026C752.331 8.56026 751.531 7.52026 750.571 6.72026C749.611 5.76026 748.571 5.28026 747.451 5.28026H746.251V2.88027H770.731L826.411 134.16L882.091 2.88027H909.211V5.28026H908.011C906.731 5.28026 905.611 5.76026 904.651 6.72026C903.691 7.52026 902.811 8.56026 902.011 9.84026C901.371 11.1203 900.891 12.4803 900.571 13.9203C900.251 15.3603 900.091 16.6403 900.091 17.7603V145.68C900.091 146.96 900.251 148.4 900.571 150C900.891 151.44 901.371 152.8 902.011 154.08C902.811 155.36 903.691 156.48 904.651 157.44C905.611 158.4 906.731 158.88 908.011 158.88H909.211V161.28H875.131V158.88ZM998.219 0.480269C1010.7 0.480269 1021.9 2.72027 1031.82 7.20027C1041.74 11.5203 1050.14 17.4403 1057.02 24.9603C1064.06 32.3203 1069.42 40.9603 1073.1 50.8803C1076.94 60.6403 1078.86 70.8803 1078.86 81.6003C1078.86 93.6003 1076.62 104.64 1072.14 114.72C1067.82 124.8 1061.82 133.44 1054.14 140.64C1046.46 147.84 1037.5 153.52 1027.26 157.68C1017.18 161.68 1006.38 163.68 994.859 163.68C982.539 163.68 971.419 161.44 961.499 156.96C951.739 152.48 943.419 146.56 936.539 139.2C929.819 131.84 924.619 123.36 920.939 113.76C917.259 104.16 915.419 94.1603 915.419 83.7603C915.419 73.5203 917.259 63.4403 920.939 53.5203C924.619 43.4403 929.979 34.4803 937.019 26.6403C944.219 18.8003 952.939 12.4803 963.179 7.68026C973.419 2.88027 985.099 0.480269 998.219 0.480269ZM997.979 155.28C1008.7 154.8 1018.06 152.4 1026.06 148.08C1034.22 143.6 1041.02 138 1046.46 131.28C1051.9 124.4 1055.9 116.88 1058.46 108.72C1061.18 100.56 1062.54 92.4803 1062.54 84.4803C1062.54 75.6803 1060.94 66.8003 1057.74 57.8403C1054.54 48.8803 1049.98 40.8003 1044.06 33.6003C1038.14 26.2403 1031.02 20.3203 1022.7 15.8403C1014.54 11.2003 1005.34 8.88026 995.099 8.88026C985.179 8.88026 976.299 11.1203 968.459 15.6003C960.619 19.9203 953.899 25.5203 948.299 32.4003C942.859 39.2803 938.699 46.9603 935.819 55.4403C932.939 63.9203 931.499 72.2403 931.499 80.4003C931.499 89.2003 933.179 98.0803 936.539 107.04C939.899 115.84 944.539 123.84 950.459 131.04C956.379 138.24 963.339 144.08 971.339 148.56C979.499 153.04 988.379 155.28 997.979 155.28ZM1099.92 158.88H1101.12C1102.24 158.88 1103.28 158.4 1104.24 157.44C1105.2 156.48 1106 155.36 1106.64 154.08C1107.44 152.8 1108 151.44 1108.32 150C1108.64 148.4 1108.8 146.96 1108.8 145.68V18.0003C1108.8 16.8803 1108.64 15.6003 1108.32 14.1603C1108 12.7203 1107.44 11.3603 1106.64 10.0803C1106 8.64026 1105.12 7.52026 1104 6.72026C1103.04 5.76026 1101.92 5.28026 1100.64 5.28026H1099.44V2.88027H1138.8C1153.68 2.88027 1165.28 6.16027 1173.6 12.7203C1182.08 19.2803 1186.32 28.0003 1186.32 38.8803C1186.32 43.5203 1185.52 47.6803 1183.92 51.3603C1182.32 55.0403 1180.24 58.3203 1177.68 61.2003C1175.28 64.0803 1172.64 66.5603 1169.76 68.6403C1166.88 70.5603 1164.16 72.1603 1161.6 73.4403C1168.32 74.7203 1173.92 76.8803 1178.4 79.9203C1182.88 82.9603 1186.48 86.4803 1189.2 90.4803C1192.08 94.3203 1194.08 98.4803 1195.2 102.96C1196.32 107.44 1196.88 111.84 1196.88 116.16C1196.88 124.48 1195.36 131.52 1192.32 137.28C1189.28 142.88 1185.2 147.52 1180.08 151.2C1175.12 154.72 1169.36 157.28 1162.8 158.88C1156.4 160.48 1149.76 161.28 1142.88 161.28H1099.92V158.88ZM1180.56 117.6C1179.28 105.28 1175.12 95.7603 1168.08 89.0403C1161.04 82.3203 1151.12 78.9603 1138.32 78.9603H1124.88V153.36H1138.8C1151.76 153.36 1161.92 150.48 1169.28 144.72C1176.8 138.8 1180.56 130.64 1180.56 120.24V117.6ZM1170.72 41.0403C1170.24 31.7603 1166.96 24.4003 1160.88 18.9603C1154.96 13.5203 1146.96 10.8003 1136.88 10.8003H1124.88V71.2803H1137.36C1144.08 71.2803 1149.52 70.4003 1153.68 68.6403C1158 66.8803 1161.44 64.6403 1164 61.9203C1166.56 59.0403 1168.32 55.9203 1169.28 52.5603C1170.24 49.2003 1170.72 45.9203 1170.72 42.7203V41.0403ZM1340.4 158.88H1341.6V161.28H1307.52V158.88H1308.72C1310 158.88 1311.12 158.4 1312.08 157.44C1313.04 156.48 1313.84 155.36 1314.48 154.08C1315.28 152.8 1315.84 151.44 1316.16 150C1316.48 148.4 1316.64 146.96 1316.64 145.68V11.7603H1288.8C1286.24 11.7603 1284 12.3203 1282.08 13.4403C1280.16 14.5603 1278.56 16.0003 1277.28 17.7603C1276 19.3603 1275.04 21.2003 1274.4 23.2803C1273.76 25.2003 1273.44 27.1203 1273.44 29.0403H1271.04V2.88027H1378.8V29.0403H1376.4C1376.4 27.1203 1376.08 25.2003 1375.44 23.2803C1374.8 21.2003 1373.84 19.3603 1372.56 17.7603C1371.28 16.0003 1369.68 14.5603 1367.76 13.4403C1365.84 12.3203 1363.6 11.7603 1361.04 11.7603H1332.72V145.68C1332.72 146.96 1332.88 148.4 1333.2 150C1333.52 151.44 1334 152.8 1334.64 154.08C1335.44 155.36 1336.24 156.48 1337.04 157.44C1338 158.4 1339.12 158.88 1340.4 158.88ZM1382.83 2.88027H1416.19V5.28026H1414.75C1412.99 5.28026 1411.79 5.84027 1411.15 6.96027C1410.51 7.92027 1410.19 8.96027 1410.19 10.0803C1410.19 10.8803 1410.27 11.6003 1410.43 12.2403C1410.59 12.8803 1410.75 13.3603 1410.91 13.6803L1451.95 103.44L1488.67 16.3203C1488.83 16.0003 1489.07 15.3603 1489.39 14.4003C1489.71 13.2803 1489.87 12.2403 1489.87 11.2803C1489.87 9.04026 1489.07 7.52026 1487.47 6.72026C1485.87 5.76026 1484.67 5.28026 1483.87 5.28026V2.88027H1509.55V5.28026C1506.67 5.28026 1504.43 6.08026 1502.83 7.68026C1501.39 9.12026 1500.27 10.6403 1499.47 12.2403L1441.87 150C1439.95 154.64 1437.39 158.08 1434.19 160.32C1430.99 162.4 1427.55 163.44 1423.87 163.44C1421.47 163.44 1419.31 163.04 1417.39 162.24C1415.47 161.6 1413.79 160.8 1412.35 159.84C1410.91 158.88 1409.79 158 1408.99 157.2C1408.35 156.4 1408.03 156 1408.03 156L1414.03 142.8C1415.31 145.84 1416.99 148.24 1419.07 150C1421.15 151.6 1423.31 152.4 1425.55 152.4C1426.99 152.4 1428.43 151.92 1429.87 150.96C1431.47 149.84 1432.83 148.16 1433.95 145.92L1443.31 123.12L1393.39 12.9603C1391.15 8.16027 1387.63 5.60027 1382.83 5.28026V2.88027ZM1522.26 2.88027H1556.34C1574.1 2.88027 1587.54 6.32027 1596.66 13.2003C1605.94 19.9203 1610.58 29.5203 1610.58 42.0003C1610.58 48.7203 1608.98 54.7203 1605.78 60.0003C1602.58 65.2803 1598.34 69.7603 1593.06 73.4403C1587.94 76.9603 1582.1 79.6803 1575.54 81.6003C1569.14 83.5203 1562.74 84.4803 1556.34 84.4803H1547.22V145.68C1547.22 146.96 1547.38 148.4 1547.7 150C1548.02 151.44 1548.5 152.8 1549.14 154.08C1549.94 155.36 1550.74 156.48 1551.54 157.44C1552.5 158.4 1553.62 158.88 1554.9 158.88H1556.1V161.28H1522.26V158.88H1523.46C1524.58 158.88 1525.62 158.4 1526.58 157.44C1527.54 156.48 1528.34 155.36 1528.98 154.08C1529.62 152.8 1530.1 151.44 1530.42 150C1530.74 148.4 1530.9 146.96 1530.9 145.68V17.7603C1530.9 15.5203 1530.26 12.9603 1528.98 10.0803C1527.7 7.20027 1525.86 5.60027 1523.46 5.28026H1522.26V2.88027ZM1547.22 11.2803V76.0803H1554.42C1560.82 76.0803 1566.5 75.2003 1571.46 73.4403C1576.58 71.6803 1580.82 69.3603 1584.18 66.4803C1587.54 63.6003 1590.1 60.3203 1591.86 56.6403C1593.62 52.9603 1594.5 49.2003 1594.5 45.3603C1594.5 40.7203 1593.7 36.4003 1592.1 32.4003C1590.66 28.2403 1588.18 24.6403 1584.66 21.6003C1581.3 18.4003 1576.82 15.9203 1571.22 14.1603C1565.62 12.2403 1558.74 11.2803 1550.58 11.2803H1547.22ZM1715.49 9.12027C1703.65 9.12027 1693.33 11.2803 1684.53 15.6003C1675.89 19.7603 1668.69 25.2803 1662.93 32.1603C1657.17 38.8803 1652.85 46.4803 1649.97 54.9603C1647.25 63.4403 1645.89 71.8403 1645.89 80.1603C1645.89 89.6003 1647.73 98.8803 1651.41 108C1655.09 116.96 1660.13 124.96 1666.53 132C1673.09 138.88 1680.69 144.48 1689.33 148.8C1697.97 152.96 1707.33 155.04 1717.41 155.04C1720.29 155.04 1723.65 154.72 1727.49 154.08C1731.49 153.44 1735.41 152.24 1739.25 150.48C1743.09 148.56 1746.61 145.92 1749.81 142.56C1753.17 139.2 1755.73 134.8 1757.49 129.36H1759.89V156C1757.49 156 1754.93 156.32 1752.21 156.96C1749.65 157.6 1746.77 158.32 1743.57 159.12C1739.41 160.24 1734.77 161.28 1729.65 162.24C1724.69 163.2 1719.41 163.68 1713.81 163.68C1699.89 163.68 1687.65 161.28 1677.09 156.48C1666.53 151.68 1657.73 145.44 1650.69 137.76C1643.65 130.08 1638.37 121.44 1634.85 111.84C1631.33 102.08 1629.57 92.2403 1629.57 82.3203C1629.57 72.4003 1631.33 62.5603 1634.85 52.8003C1638.37 43.0403 1643.73 34.3203 1650.93 26.6403C1658.13 18.8003 1667.17 12.4803 1678.05 7.68026C1688.93 2.88027 1701.73 0.480269 1716.45 0.480269C1721.73 0.480269 1726.45 0.960268 1730.61 1.92027C1734.93 2.88026 1738.77 3.84026 1742.13 4.80027C1744.53 5.60027 1746.69 6.24027 1748.61 6.72026C1750.69 7.04027 1752.69 7.20027 1754.61 7.20027V33.8403H1752.21C1751.25 28.8803 1749.49 24.8003 1746.93 21.6003C1744.37 18.2403 1741.33 15.6803 1737.81 13.9203C1734.45 12.1603 1730.77 10.9603 1726.77 10.3203C1722.93 9.52027 1719.17 9.12027 1715.49 9.12027Z" fill="#173452"/>
</svg>
